<mxfile host="65bd71144e">
    <diagram id="dmbm6BDHoPjLQ5Cpv6gt" name="ページ1">
        <mxGraphModel dx="2665" dy="779" grid="1" gridSize="10" guides="1" tooltips="1" connect="1" arrows="1" fold="1" page="1" pageScale="1" pageWidth="827" pageHeight="1169" background="#ffffff" math="0" shadow="0">
            <root>
                <mxCell id="0"/>
                <mxCell id="1" parent="0"/>
                <mxCell id="316" value="" style="rounded=0;whiteSpace=wrap;html=1;fontSize=15;fontColor=#000000;fillColor=#FFFFFF;" parent="1" vertex="1">
                    <mxGeometry x="-740" y="206.5" width="1470" height="770" as="geometry"/>
                </mxCell>
                <mxCell id="187" value="&lt;font style=&quot;font-size: 15px;&quot;&gt;AWS Cloud&lt;/font&gt;" style="points=[[0,0],[0.25,0],[0.5,0],[0.75,0],[1,0],[1,0.25],[1,0.5],[1,0.75],[1,1],[0.75,1],[0.5,1],[0.25,1],[0,1],[0,0.75],[0,0.5],[0,0.25]];outlineConnect=0;gradientColor=none;html=1;whiteSpace=wrap;fontSize=12;fontStyle=0;container=1;pointerEvents=0;collapsible=0;recursiveResize=0;shape=mxgraph.aws4.group;grIcon=mxgraph.aws4.group_aws_cloud_alt;strokeColor=#232F3E;fillColor=none;verticalAlign=top;align=left;spacingLeft=30;fontColor=#232F3E;dashed=0;" parent="1" vertex="1">
                    <mxGeometry x="-700" y="343" width="1390" height="497" as="geometry"/>
                </mxCell>
                <mxCell id="238" value="" style="edgeStyle=orthogonalEdgeStyle;html=1;strokeColor=#000000;strokeWidth=2;fontSize=15;fontColor=#FF8000;" parent="187" source="189" target="191" edge="1">
                    <mxGeometry relative="1" as="geometry"/>
                </mxCell>
                <mxCell id="189" value="" style="sketch=0;points=[[0,0,0],[0.25,0,0],[0.5,0,0],[0.75,0,0],[1,0,0],[0,1,0],[0.25,1,0],[0.5,1,0],[0.75,1,0],[1,1,0],[0,0.25,0],[0,0.5,0],[0,0.75,0],[1,0.25,0],[1,0.5,0],[1,0.75,0]];outlineConnect=0;fontColor=#232F3E;gradientColor=#945DF2;gradientDirection=north;fillColor=#5A30B5;strokeColor=#ffffff;dashed=0;verticalLabelPosition=bottom;verticalAlign=top;align=center;html=1;fontSize=12;fontStyle=0;aspect=fixed;shape=mxgraph.aws4.resourceIcon;resIcon=mxgraph.aws4.route_53;" parent="187" vertex="1">
                    <mxGeometry x="120" y="74.5" width="78" height="78" as="geometry"/>
                </mxCell>
                <mxCell id="192" value="" style="sketch=0;points=[[0,0,0],[0.25,0,0],[0.5,0,0],[0.75,0,0],[1,0,0],[0,1,0],[0.25,1,0],[0.5,1,0],[0.75,1,0],[1,1,0],[0,0.25,0],[0,0.5,0],[0,0.75,0],[1,0.25,0],[1,0.5,0],[1,0.75,0]];outlineConnect=0;fontColor=#232F3E;gradientColor=#60A337;gradientDirection=north;fillColor=#277116;strokeColor=#ffffff;dashed=0;verticalLabelPosition=bottom;verticalAlign=top;align=center;html=1;fontSize=12;fontStyle=0;aspect=fixed;shape=mxgraph.aws4.resourceIcon;resIcon=mxgraph.aws4.s3;" parent="187" vertex="1">
                    <mxGeometry x="120" y="344.5" width="78" height="78" as="geometry"/>
                </mxCell>
                <mxCell id="195" value="" style="sketch=0;points=[[0,0,0],[0.25,0,0],[0.5,0,0],[0.75,0,0],[1,0,0],[0,1,0],[0.25,1,0],[0.5,1,0],[0.75,1,0],[1,1,0],[0,0.25,0],[0,0.5,0],[0,0.75,0],[1,0.25,0],[1,0.5,0],[1,0.75,0]];outlineConnect=0;fontColor=#232F3E;gradientColor=#F78E04;gradientDirection=north;fillColor=#D05C17;strokeColor=#ffffff;dashed=0;verticalLabelPosition=bottom;verticalAlign=top;align=center;html=1;fontSize=12;fontStyle=0;aspect=fixed;shape=mxgraph.aws4.resourceIcon;resIcon=mxgraph.aws4.elastic_load_balancing;" parent="187" vertex="1">
                    <mxGeometry x="300" y="204" width="78" height="78" as="geometry"/>
                </mxCell>
                <mxCell id="184" value="&lt;font style=&quot;font-size: 15px;&quot;&gt;VPC&lt;/font&gt;" style="points=[[0,0],[0.25,0],[0.5,0],[0.75,0],[1,0],[1,0.25],[1,0.5],[1,0.75],[1,1],[0.75,1],[0.5,1],[0.25,1],[0,1],[0,0.75],[0,0.5],[0,0.25]];outlineConnect=0;gradientColor=none;html=1;whiteSpace=wrap;fontSize=12;fontStyle=0;container=1;pointerEvents=0;collapsible=0;recursiveResize=0;shape=mxgraph.aws4.group;grIcon=mxgraph.aws4.group_vpc;strokeColor=#248814;fillColor=none;verticalAlign=top;align=left;spacingLeft=30;fontColor=#AAB7B8;dashed=0;" parent="187" vertex="1">
                    <mxGeometry x="470" y="15" width="870" height="470" as="geometry"/>
                </mxCell>
                <mxCell id="186" value="&lt;font style=&quot;font-size: 15px;&quot;&gt;Public subnet&lt;/font&gt;" style="points=[[0,0],[0.25,0],[0.5,0],[0.75,0],[1,0],[1,0.25],[1,0.5],[1,0.75],[1,1],[0.75,1],[0.5,1],[0.25,1],[0,1],[0,0.75],[0,0.5],[0,0.25]];outlineConnect=0;gradientColor=none;html=1;whiteSpace=wrap;fontSize=12;fontStyle=0;container=1;pointerEvents=0;collapsible=0;recursiveResize=0;shape=mxgraph.aws4.group;grIcon=mxgraph.aws4.group_security_group;grStroke=0;strokeColor=#248814;fillColor=#E9F3E6;verticalAlign=top;align=left;spacingLeft=30;fontColor=#248814;dashed=0;" parent="184" vertex="1">
                    <mxGeometry x="110" y="48" width="354.5" height="422" as="geometry"/>
                </mxCell>
                <mxCell id="214" value="" style="group" parent="186" vertex="1" connectable="0">
                    <mxGeometry x="24.5" y="32" width="290" height="150" as="geometry"/>
                </mxCell>
                <mxCell id="211" value="" style="points=[[0,0],[0.25,0],[0.5,0],[0.75,0],[1,0],[1,0.25],[1,0.5],[1,0.75],[1,1],[0.75,1],[0.5,1],[0.25,1],[0,1],[0,0.75],[0,0.5],[0,0.25]];outlineConnect=0;gradientColor=none;html=1;whiteSpace=wrap;fontSize=12;fontStyle=0;container=1;pointerEvents=0;collapsible=0;recursiveResize=0;shape=mxgraph.aws4.group;grIcon=mxgraph.aws4.group_ec2_instance_contents;strokeColor=#D86613;fillColor=#FFFFFF;verticalAlign=top;align=left;spacingLeft=30;fontColor=#D86613;dashed=0;" parent="214" vertex="1">
                    <mxGeometry width="290" height="150" as="geometry"/>
                </mxCell>
                <mxCell id="212" value="ECS on Fargate" style="text;strokeColor=none;align=left;fillColor=none;html=1;verticalAlign=middle;whiteSpace=wrap;rounded=0;fontColor=#FF8000;fontSize=15;" parent="211" vertex="1">
                    <mxGeometry x="50" y="5" width="140" height="30" as="geometry"/>
                </mxCell>
                <mxCell id="194" value="" style="sketch=0;points=[[0,0,0],[0.25,0,0],[0.5,0,0],[0.75,0,0],[1,0,0],[0,1,0],[0.25,1,0],[0.5,1,0],[0.75,1,0],[1,1,0],[0,0.25,0],[0,0.5,0],[0,0.75,0],[1,0.25,0],[1,0.5,0],[1,0.75,0]];outlineConnect=0;fontColor=#232F3E;gradientColor=#F78E04;gradientDirection=north;fillColor=#D05C17;strokeColor=#ffffff;dashed=0;verticalLabelPosition=bottom;verticalAlign=top;align=center;html=1;fontSize=12;fontStyle=0;aspect=fixed;shape=mxgraph.aws4.resourceIcon;resIcon=mxgraph.aws4.fargate;" parent="214" vertex="1">
                    <mxGeometry width="40" height="40" as="geometry"/>
                </mxCell>
                <mxCell id="213" value="" style="shape=image;imageAspect=0;aspect=fixed;verticalLabelPosition=bottom;verticalAlign=top;fontSize=15;fontColor=#FF8000;fillColor=#FFFFFF;image=https://licensecounter.jp/devops-hub/docker%20%281%29.png;" parent="214" vertex="1">
                    <mxGeometry x="220" y="98.44" width="70" height="51.56" as="geometry"/>
                </mxCell>
                <mxCell id="207" value="" style="shape=image;imageAspect=0;aspect=fixed;verticalLabelPosition=bottom;verticalAlign=top;image=https://cdn.icon-icons.com/icons2/2699/PNG/512/nginx_logo_icon_168081.png;" parent="214" vertex="1">
                    <mxGeometry x="70" y="37.5" width="150" height="75" as="geometry"/>
                </mxCell>
                <mxCell id="215" value="" style="group" parent="186" vertex="1" connectable="0">
                    <mxGeometry x="26.5" y="212" width="290" height="150" as="geometry"/>
                </mxCell>
                <mxCell id="216" value="" style="points=[[0,0],[0.25,0],[0.5,0],[0.75,0],[1,0],[1,0.25],[1,0.5],[1,0.75],[1,1],[0.75,1],[0.5,1],[0.25,1],[0,1],[0,0.75],[0,0.5],[0,0.25]];outlineConnect=0;gradientColor=none;html=1;whiteSpace=wrap;fontSize=12;fontStyle=0;container=1;pointerEvents=0;collapsible=0;recursiveResize=0;shape=mxgraph.aws4.group;grIcon=mxgraph.aws4.group_ec2_instance_contents;strokeColor=#D86613;fillColor=#FFFFFF;verticalAlign=top;align=left;spacingLeft=30;fontColor=#D86613;dashed=0;" parent="215" vertex="1">
                    <mxGeometry width="290" height="150" as="geometry"/>
                </mxCell>
                <mxCell id="217" value="ECS on Fargate" style="text;strokeColor=none;align=left;fillColor=none;html=1;verticalAlign=middle;whiteSpace=wrap;rounded=0;fontColor=#FF8000;fontSize=15;" parent="216" vertex="1">
                    <mxGeometry x="50" y="5" width="140" height="30" as="geometry"/>
                </mxCell>
                <mxCell id="218" value="" style="sketch=0;points=[[0,0,0],[0.25,0,0],[0.5,0,0],[0.75,0,0],[1,0,0],[0,1,0],[0.25,1,0],[0.5,1,0],[0.75,1,0],[1,1,0],[0,0.25,0],[0,0.5,0],[0,0.75,0],[1,0.25,0],[1,0.5,0],[1,0.75,0]];outlineConnect=0;fontColor=#232F3E;gradientColor=#F78E04;gradientDirection=north;fillColor=#D05C17;strokeColor=#ffffff;dashed=0;verticalLabelPosition=bottom;verticalAlign=top;align=center;html=1;fontSize=12;fontStyle=0;aspect=fixed;shape=mxgraph.aws4.resourceIcon;resIcon=mxgraph.aws4.fargate;" parent="215" vertex="1">
                    <mxGeometry width="40" height="40" as="geometry"/>
                </mxCell>
                <mxCell id="219" value="" style="shape=image;imageAspect=0;aspect=fixed;verticalLabelPosition=bottom;verticalAlign=top;fontSize=15;fontColor=#FF8000;fillColor=#FFFFFF;image=https://licensecounter.jp/devops-hub/docker%20%281%29.png;" parent="215" vertex="1">
                    <mxGeometry x="220" y="98.44" width="70" height="51.56" as="geometry"/>
                </mxCell>
                <mxCell id="205" value="" style="shape=image;imageAspect=0;aspect=fixed;verticalLabelPosition=bottom;verticalAlign=top;image=https://upload.wikimedia.org/wikipedia/commons/6/62/Ruby_On_Rails_Logo.svg;" parent="215" vertex="1">
                    <mxGeometry x="70" y="55" width="119.33" height="45" as="geometry"/>
                </mxCell>
                <mxCell id="235" value="" style="edgeStyle=none;orthogonalLoop=1;jettySize=auto;html=1;fontSize=15;fontColor=#FF8000;strokeColor=#000000;strokeWidth=2;entryX=0.5;entryY=0;entryDx=0;entryDy=0;" parent="186" edge="1">
                    <mxGeometry width="80" relative="1" as="geometry">
                        <mxPoint x="165.5" y="182" as="sourcePoint"/>
                        <mxPoint x="165.5" y="212" as="targetPoint"/>
                        <Array as="points"/>
                    </mxGeometry>
                </mxCell>
                <mxCell id="185" value="&lt;font style=&quot;font-size: 15px;&quot;&gt;Private subnet&lt;/font&gt;" style="points=[[0,0],[0.25,0],[0.5,0],[0.75,0],[1,0],[1,0.25],[1,0.5],[1,0.75],[1,1],[0.75,1],[0.5,1],[0.25,1],[0,1],[0,0.75],[0,0.5],[0,0.25]];outlineConnect=0;gradientColor=none;html=1;whiteSpace=wrap;fontSize=12;fontStyle=0;container=1;pointerEvents=0;collapsible=0;recursiveResize=0;shape=mxgraph.aws4.group;grIcon=mxgraph.aws4.group_security_group;grStroke=0;strokeColor=#147EBA;fillColor=#E6F2F8;verticalAlign=top;align=left;spacingLeft=30;fontColor=#147EBA;dashed=0;" parent="184" vertex="1">
                    <mxGeometry x="504.5" y="48" width="330" height="382" as="geometry"/>
                </mxCell>
                <mxCell id="196" value="" style="sketch=0;points=[[0,0,0],[0.25,0,0],[0.5,0,0],[0.75,0,0],[1,0,0],[0,1,0],[0.25,1,0],[0.5,1,0],[0.75,1,0],[1,1,0],[0,0.25,0],[0,0.5,0],[0,0.75,0],[1,0.25,0],[1,0.5,0],[1,0.75,0]];outlineConnect=0;fontColor=#232F3E;gradientColor=#4D72F3;gradientDirection=north;fillColor=#3334B9;strokeColor=#ffffff;dashed=0;verticalLabelPosition=bottom;verticalAlign=top;align=center;html=1;fontSize=12;fontStyle=0;aspect=fixed;shape=mxgraph.aws4.resourceIcon;resIcon=mxgraph.aws4.rds;" parent="185" vertex="1">
                    <mxGeometry x="120" y="104" width="78" height="78" as="geometry"/>
                </mxCell>
                <mxCell id="224" value="" style="shape=image;imageAspect=0;aspect=fixed;verticalLabelPosition=bottom;verticalAlign=top;fontSize=15;fontColor=#FF8000;fillColor=#FFFFFF;image=https://cdn.icon-icons.com/icons2/2699/PNG/512/mysql_official_logo_icon_169938.png;" parent="185" vertex="1">
                    <mxGeometry x="108" y="199.01" width="102" height="52.99" as="geometry"/>
                </mxCell>
                <mxCell id="236" value="" style="edgeStyle=orthogonalEdgeStyle;orthogonalLoop=1;jettySize=auto;html=1;fontSize=15;fontColor=#FF8000;strokeColor=#000000;strokeWidth=2;exitX=1;exitY=0;exitDx=0;exitDy=0;entryX=0;entryY=0.5;entryDx=0;entryDy=0;" parent="184" source="219" target="185" edge="1">
                    <mxGeometry width="80" relative="1" as="geometry">
                        <mxPoint x="285.5" y="240" as="sourcePoint"/>
                        <mxPoint x="285.5" y="270" as="targetPoint"/>
                        <Array as="points">
                            <mxPoint x="474.5" y="358"/>
                            <mxPoint x="474.5" y="239"/>
                        </Array>
                    </mxGeometry>
                </mxCell>
                <mxCell id="250" value="" style="sketch=0;points=[[0,0,0],[0.25,0,0],[0.5,0,0],[0.75,0,0],[1,0,0],[0,1,0],[0.25,1,0],[0.5,1,0],[0.75,1,0],[1,1,0],[0,0.25,0],[0,0.5,0],[0,0.75,0],[1,0.25,0],[1,0.5,0],[1,0.75,0]];outlineConnect=0;fontColor=#232F3E;gradientColor=#F78E04;gradientDirection=north;fillColor=#D05C17;strokeColor=#ffffff;dashed=0;verticalLabelPosition=bottom;verticalAlign=top;align=center;html=1;fontSize=12;fontStyle=0;aspect=fixed;shape=mxgraph.aws4.resourceIcon;resIcon=mxgraph.aws4.ecr;" parent="184" vertex="1">
                    <mxGeometry x="30" y="382" width="58" height="58" as="geometry"/>
                </mxCell>
                <mxCell id="193" value="" style="sketch=0;outlineConnect=0;fontColor=#232F3E;gradientColor=none;fillColor=#4D27AA;strokeColor=none;dashed=0;verticalLabelPosition=bottom;verticalAlign=top;align=center;html=1;fontSize=12;fontStyle=0;aspect=fixed;pointerEvents=1;shape=mxgraph.aws4.internet_gateway;" parent="184" vertex="1">
                    <mxGeometry x="-20" y="208" width="39" height="39" as="geometry"/>
                </mxCell>
                <mxCell id="233" value="" style="edgeStyle=orthogonalEdgeStyle;orthogonalLoop=1;jettySize=auto;html=1;fontSize=15;fontColor=#FF8000;strokeColor=#000000;strokeWidth=2;entryX=0;entryY=0.5;entryDx=0;entryDy=0;" parent="184" source="193" target="211" edge="1">
                    <mxGeometry width="80" relative="1" as="geometry">
                        <mxPoint x="-40" y="172" as="sourcePoint"/>
                        <mxPoint x="62" y="172" as="targetPoint"/>
                    </mxGeometry>
                </mxCell>
                <mxCell id="302" value="Gateway" style="text;strokeColor=none;align=left;fillColor=none;html=1;verticalAlign=middle;whiteSpace=wrap;rounded=0;fontSize=15;fontColor=#000000;" parent="184" vertex="1">
                    <mxGeometry x="-30" y="182" width="72" height="30" as="geometry"/>
                </mxCell>
                <mxCell id="259" value="ECR" style="text;strokeColor=none;align=left;fillColor=none;html=1;verticalAlign=middle;whiteSpace=wrap;rounded=0;fontSize=15;fontColor=#000000;" parent="184" vertex="1">
                    <mxGeometry x="64.5" y="440" width="72" height="30" as="geometry"/>
                </mxCell>
                <mxCell id="306" value="SSL証明書" style="text;strokeColor=none;align=left;fillColor=none;html=1;verticalAlign=middle;whiteSpace=wrap;rounded=0;fontSize=15;fontColor=#000000;" parent="184" vertex="1">
                    <mxGeometry x="-120" y="282" width="80" height="30" as="geometry"/>
                </mxCell>
                <mxCell id="197" value="" style="sketch=0;points=[[0,0,0],[0.25,0,0],[0.5,0,0],[0.75,0,0],[1,0,0],[0,1,0],[0.25,1,0],[0.5,1,0],[0.75,1,0],[1,1,0],[0,0.25,0],[0,0.5,0],[0,0.75,0],[1,0.25,0],[1,0.5,0],[1,0.75,0]];outlineConnect=0;fontColor=#232F3E;gradientColor=#F54749;gradientDirection=north;fillColor=#C7131F;strokeColor=#ffffff;dashed=0;verticalLabelPosition=bottom;verticalAlign=top;align=center;html=1;fontSize=12;fontStyle=0;aspect=fixed;shape=mxgraph.aws4.resourceIcon;resIcon=mxgraph.aws4.certificate_manager_3;" parent="187" vertex="1">
                    <mxGeometry x="300" y="344.5" width="78" height="78" as="geometry"/>
                </mxCell>
                <mxCell id="191" value="" style="sketch=0;points=[[0,0,0],[0.25,0,0],[0.5,0,0],[0.75,0,0],[1,0,0],[0,1,0],[0.25,1,0],[0.5,1,0],[0.75,1,0],[1,1,0],[0,0.25,0],[0,0.5,0],[0,0.75,0],[1,0.25,0],[1,0.5,0],[1,0.75,0]];outlineConnect=0;fontColor=#232F3E;gradientColor=#945DF2;gradientDirection=north;fillColor=#5A30B5;strokeColor=#ffffff;dashed=0;verticalLabelPosition=bottom;verticalAlign=top;align=center;html=1;fontSize=12;fontStyle=0;aspect=fixed;shape=mxgraph.aws4.resourceIcon;resIcon=mxgraph.aws4.cloudfront;" parent="187" vertex="1">
                    <mxGeometry x="120" y="204" width="78" height="78" as="geometry"/>
                </mxCell>
                <mxCell id="228" value="" style="edgeStyle=none;orthogonalLoop=1;jettySize=auto;html=1;fontSize=15;fontColor=#FF8000;strokeColor=#000000;strokeWidth=2;entryX=0.5;entryY=0;entryDx=0;entryDy=0;entryPerimeter=0;exitX=0.5;exitY=1;exitDx=0;exitDy=0;exitPerimeter=0;" parent="187" source="189" target="191" edge="1">
                    <mxGeometry width="80" relative="1" as="geometry">
                        <mxPoint x="158.28999999999996" y="150.94232005343883" as="sourcePoint"/>
                        <mxPoint x="158.28999999999996" y="282" as="targetPoint"/>
                        <Array as="points"/>
                    </mxGeometry>
                </mxCell>
                <mxCell id="229" value="" style="edgeStyle=none;orthogonalLoop=1;jettySize=auto;html=1;fontSize=15;fontColor=#FF8000;strokeColor=#000000;strokeWidth=2;entryX=0.5;entryY=0;entryDx=0;entryDy=0;entryPerimeter=0;exitX=0.5;exitY=1;exitDx=0;exitDy=0;exitPerimeter=0;" parent="187" source="191" target="192" edge="1">
                    <mxGeometry width="80" relative="1" as="geometry">
                        <mxPoint x="158.28999999999996" y="281.9999999999998" as="sourcePoint"/>
                        <mxPoint x="158.28999999999996" y="333.5" as="targetPoint"/>
                        <Array as="points"/>
                    </mxGeometry>
                </mxCell>
                <mxCell id="230" value="" style="edgeStyle=none;orthogonalLoop=1;jettySize=auto;html=1;fontSize=15;fontColor=#FF8000;strokeColor=#000000;strokeWidth=2;entryX=0.25;entryY=0;entryDx=0;entryDy=0;entryPerimeter=0;exitX=0.25;exitY=1;exitDx=0;exitDy=0;exitPerimeter=0;" parent="187" edge="1">
                    <mxGeometry width="80" relative="1" as="geometry">
                        <mxPoint x="339.5" y="282" as="sourcePoint"/>
                        <mxPoint x="339.5" y="344.5" as="targetPoint"/>
                        <Array as="points"/>
                    </mxGeometry>
                </mxCell>
                <mxCell id="232" value="" style="edgeStyle=none;orthogonalLoop=1;jettySize=auto;html=1;fontSize=15;fontColor=#FF8000;strokeColor=#000000;strokeWidth=2;entryX=0;entryY=0.5;entryDx=0;entryDy=0;entryPerimeter=0;exitX=1;exitY=0.5;exitDx=0;exitDy=0;exitPerimeter=0;" parent="187" source="191" target="195" edge="1">
                    <mxGeometry width="80" relative="1" as="geometry">
                        <mxPoint x="240" y="247" as="sourcePoint"/>
                        <mxPoint x="240" y="309.5" as="targetPoint"/>
                        <Array as="points"/>
                    </mxGeometry>
                </mxCell>
                <mxCell id="234" value="" style="edgeStyle=none;orthogonalLoop=1;jettySize=auto;html=1;fontSize=15;fontColor=#FF8000;strokeColor=#000000;strokeWidth=2;" parent="187" target="193" edge="1">
                    <mxGeometry width="80" relative="1" as="geometry">
                        <mxPoint x="380" y="242" as="sourcePoint"/>
                        <mxPoint x="440" y="242" as="targetPoint"/>
                        <Array as="points"/>
                    </mxGeometry>
                </mxCell>
                <mxCell id="255" value="Route53" style="text;strokeColor=none;align=left;fillColor=none;html=1;verticalAlign=middle;whiteSpace=wrap;rounded=0;fontSize=15;fontColor=#000000;" parent="187" vertex="1">
                    <mxGeometry x="170" y="152.5" width="72" height="30" as="geometry"/>
                </mxCell>
                <mxCell id="256" value="CloudFront" style="text;strokeColor=none;align=left;fillColor=none;html=1;verticalAlign=middle;whiteSpace=wrap;rounded=0;fontSize=15;fontColor=#000000;" parent="187" vertex="1">
                    <mxGeometry x="170" y="282" width="72" height="30" as="geometry"/>
                </mxCell>
                <mxCell id="257" value="S3" style="text;strokeColor=none;align=left;fillColor=none;html=1;verticalAlign=middle;whiteSpace=wrap;rounded=0;fontSize=15;fontColor=#000000;" parent="187" vertex="1">
                    <mxGeometry x="180" y="417" width="72" height="30" as="geometry"/>
                </mxCell>
                <mxCell id="261" value="Compile &amp;amp; Upload" style="text;strokeColor=none;align=left;fillColor=none;html=1;verticalAlign=middle;whiteSpace=wrap;rounded=0;fontSize=15;fontColor=#000000;" parent="187" vertex="1">
                    <mxGeometry x="204" y="457" width="174" height="30" as="geometry"/>
                </mxCell>
                <mxCell id="305" value="APIを叩く" style="text;strokeColor=none;align=left;fillColor=none;html=1;verticalAlign=middle;whiteSpace=wrap;rounded=0;fontSize=15;fontColor=#000000;" parent="187" vertex="1">
                    <mxGeometry x="210" y="212" width="174" height="30" as="geometry"/>
                </mxCell>
                <mxCell id="201" value="" style="sketch=0;outlineConnect=0;fontColor=#232F3E;gradientColor=none;fillColor=#232F3D;strokeColor=none;dashed=0;verticalLabelPosition=bottom;verticalAlign=top;align=center;html=1;fontSize=12;fontStyle=0;aspect=fixed;pointerEvents=1;shape=mxgraph.aws4.internet_alt2;" parent="1" vertex="1">
                    <mxGeometry x="-580" y="230" width="78" height="78" as="geometry"/>
                </mxCell>
                <mxCell id="202" value="" style="sketch=0;outlineConnect=0;fontColor=#232F3E;gradientColor=none;fillColor=#232F3D;strokeColor=none;dashed=0;verticalLabelPosition=bottom;verticalAlign=top;align=center;html=1;fontSize=12;fontStyle=0;aspect=fixed;pointerEvents=1;shape=mxgraph.aws4.mobile_client;" parent="1" vertex="1">
                    <mxGeometry x="-370" y="230" width="41" height="78" as="geometry"/>
                </mxCell>
                <mxCell id="208" value="" style="shape=image;imageAspect=0;aspect=fixed;verticalLabelPosition=bottom;verticalAlign=top;image=https://nuxt.com/assets/design-kit/logo-green-black.svg;" parent="1" vertex="1">
                    <mxGeometry x="-560" y="872" width="128" height="32" as="geometry"/>
                </mxCell>
                <mxCell id="227" value="" style="edgeStyle=none;orthogonalLoop=1;jettySize=auto;html=1;fontSize=15;fontColor=#FF8000;strokeColor=#000000;strokeWidth=2;entryX=0.5;entryY=0;entryDx=0;entryDy=0;entryPerimeter=0;" parent="1" source="201" target="189" edge="1">
                    <mxGeometry width="80" relative="1" as="geometry">
                        <mxPoint x="-510" y="320" as="sourcePoint"/>
                        <mxPoint x="-430" y="320" as="targetPoint"/>
                        <Array as="points"/>
                    </mxGeometry>
                </mxCell>
                <mxCell id="239" value="" style="edgeStyle=orthogonalEdgeStyle;html=1;strokeColor=#000000;strokeWidth=2;fontSize=15;fontColor=#FF8000;entryX=0.5;entryY=1;entryDx=0;entryDy=0;entryPerimeter=0;" parent="1" source="208" target="192" edge="1">
                    <mxGeometry relative="1" as="geometry">
                        <mxPoint x="-531" y="505.4999999999998" as="sourcePoint"/>
                        <mxPoint x="-540" y="790" as="targetPoint"/>
                        <Array as="points"/>
                    </mxGeometry>
                </mxCell>
                <mxCell id="241" value="" style="edgeStyle=none;orthogonalLoop=1;jettySize=auto;html=1;fontSize=15;fontColor=#FF8000;strokeColor=#000000;strokeWidth=2;" parent="1" source="202" edge="1">
                    <mxGeometry width="80" relative="1" as="geometry">
                        <mxPoint x="-390" y="270.00232005343884" as="sourcePoint"/>
                        <mxPoint x="-490" y="270" as="targetPoint"/>
                        <Array as="points">
                            <mxPoint x="-410" y="270"/>
                        </Array>
                    </mxGeometry>
                </mxCell>
                <mxCell id="244" value="" style="sketch=0;outlineConnect=0;fontColor=#232F3E;gradientColor=none;fillColor=#232F3D;strokeColor=none;dashed=0;verticalLabelPosition=bottom;verticalAlign=top;align=center;html=1;fontSize=12;fontStyle=0;aspect=fixed;pointerEvents=1;shape=mxgraph.aws4.users;" parent="1" vertex="1">
                    <mxGeometry x="-310" y="230" width="78" height="78" as="geometry"/>
                </mxCell>
                <mxCell id="246" value="Client" style="text;strokeColor=none;align=left;fillColor=none;html=1;verticalAlign=middle;whiteSpace=wrap;rounded=0;fontSize=15;fontColor=#000000;" parent="1" vertex="1">
                    <mxGeometry x="-220" y="278" width="110" height="30" as="geometry"/>
                </mxCell>
                <mxCell id="247" value="Internet" style="text;strokeColor=none;align=left;fillColor=none;html=1;verticalAlign=middle;whiteSpace=wrap;rounded=0;fontSize=15;fontColor=#000000;" parent="1" vertex="1">
                    <mxGeometry x="-510" y="278" width="110" height="30" as="geometry"/>
                </mxCell>
                <mxCell id="249" value="" style="shape=image;imageAspect=0;aspect=fixed;verticalLabelPosition=bottom;verticalAlign=top;fontSize=15;fontColor=#000000;fillColor=#FFFFFF;image=https://git-scm.com/images/logos/logomark-orange@2x.png;" parent="1" vertex="1">
                    <mxGeometry x="-296" y="862" width="61" height="61" as="geometry"/>
                </mxCell>
                <mxCell id="254" value="" style="edgeStyle=orthogonalEdgeStyle;html=1;strokeColor=#000000;strokeWidth=2;fontSize=15;fontColor=#FF8000;entryX=0.5;entryY=1;entryDx=0;entryDy=0;entryPerimeter=0;" parent="1" source="249" target="250" edge="1">
                    <mxGeometry relative="1" as="geometry">
                        <mxPoint x="-115" y="923" as="sourcePoint"/>
                        <mxPoint x="-160" y="816.4999999999998" as="targetPoint"/>
                        <Array as="points"/>
                    </mxGeometry>
                </mxCell>
                <mxCell id="258" value="Git" style="text;strokeColor=none;align=left;fillColor=none;html=1;verticalAlign=middle;whiteSpace=wrap;rounded=0;fontSize=15;fontColor=#000000;" parent="1" vertex="1">
                    <mxGeometry x="-250" y="910" width="72" height="30" as="geometry"/>
                </mxCell>
                <mxCell id="260" value="Push" style="text;strokeColor=none;align=left;fillColor=none;html=1;verticalAlign=middle;whiteSpace=wrap;rounded=0;fontSize=15;fontColor=#000000;" parent="1" vertex="1">
                    <mxGeometry x="-160" y="854.5" width="72" height="30" as="geometry"/>
                </mxCell>
                <mxCell id="304" style="edgeStyle=orthogonalEdgeStyle;html=1;exitX=0.5;exitY=0;exitDx=0;exitDy=0;entryX=0.25;entryY=0;entryDx=0;entryDy=0;strokeColor=#000000;strokeWidth=2;fontSize=15;fontColor=#000000;" parent="1" source="258" target="258" edge="1">
                    <mxGeometry relative="1" as="geometry"/>
                </mxCell>
                <mxCell id="311" value="Local" style="points=[[0,0],[0.25,0],[0.5,0],[0.75,0],[1,0],[1,0.25],[1,0.5],[1,0.75],[1,1],[0.75,1],[0.5,1],[0.25,1],[0,1],[0,0.75],[0,0.5],[0,0.25]];outlineConnect=0;gradientColor=none;html=1;whiteSpace=wrap;fontSize=12;fontStyle=0;container=1;pointerEvents=0;collapsible=0;recursiveResize=0;shape=mxgraph.aws4.group;grIcon=mxgraph.aws4.group_on_premise;strokeColor=#5A6C86;fillColor=none;verticalAlign=top;align=left;spacingLeft=30;fontColor=#5A6C86;dashed=0;" parent="1" vertex="1">
                    <mxGeometry x="-700" y="854.5" width="630" height="105.5" as="geometry"/>
                </mxCell>
                <mxCell id="245" value="" style="sketch=0;outlineConnect=0;fontColor=#232F3E;gradientColor=none;fillColor=#232F3D;strokeColor=none;dashed=0;verticalLabelPosition=bottom;verticalAlign=top;align=center;html=1;fontSize=12;fontStyle=0;aspect=fixed;pointerEvents=1;shape=mxgraph.aws4.client;" parent="311" vertex="1">
                    <mxGeometry x="300" y="9.5" width="78" height="76" as="geometry"/>
                </mxCell>
            </root>
        </mxGraphModel>
    </diagram>
</mxfile>